<mxfile host="Electron" agent="Mozilla/5.0 (X11; Linux x86_64) AppleWebKit/537.36 (KHTML, like Gecko) draw.io/24.7.5 Chrome/126.0.6478.183 Electron/31.3.0 Safari/537.36" version="24.7.5">
  <diagram name="Page-1" id="YuE_GhEYr4UN-xfLbkZQ">
    <mxGraphModel dx="1394" dy="830" grid="1" gridSize="10" guides="1" tooltips="1" connect="1" arrows="1" fold="1" page="1" pageScale="1" pageWidth="850" pageHeight="1100" math="1" shadow="0">
      <root>
        <mxCell id="0" />
        <mxCell id="1" parent="0" />
        <mxCell id="eS1aWTDM6hAk5lM-BrTF-2" value="" style="pointerEvents=1;verticalLabelPosition=bottom;shadow=0;dashed=0;align=center;html=1;verticalAlign=top;shape=mxgraph.electrical.resistors.resistor_1;direction=south;strokeWidth=2;" parent="1" vertex="1">
          <mxGeometry x="668" y="526" width="20" height="100" as="geometry" />
        </mxCell>
        <mxCell id="eS1aWTDM6hAk5lM-BrTF-3" value="" style="pointerEvents=1;verticalLabelPosition=bottom;shadow=0;dashed=0;align=center;html=1;verticalAlign=top;shape=mxgraph.electrical.capacitors.capacitor_1;direction=south;strokeWidth=2;" parent="1" vertex="1">
          <mxGeometry x="563" y="526" width="30" height="100" as="geometry" />
        </mxCell>
        <mxCell id="eS1aWTDM6hAk5lM-BrTF-4" value="" style="pointerEvents=1;verticalLabelPosition=bottom;shadow=0;dashed=0;align=center;html=1;verticalAlign=top;shape=mxgraph.electrical.resistors.resistor_1;direction=south;strokeWidth=2;" parent="1" vertex="1">
          <mxGeometry x="568" y="417" width="20" height="100" as="geometry" />
        </mxCell>
        <mxCell id="eS1aWTDM6hAk5lM-BrTF-13" value="" style="endArrow=none;html=1;rounded=0;strokeWidth=2;" parent="1" edge="1">
          <mxGeometry width="50" height="50" relative="1" as="geometry">
            <mxPoint x="578" y="640" as="sourcePoint" />
            <mxPoint x="678" y="640" as="targetPoint" />
          </mxGeometry>
        </mxCell>
        <mxCell id="eS1aWTDM6hAk5lM-BrTF-14" value="" style="endArrow=none;html=1;rounded=0;strokeWidth=2;" parent="1" edge="1">
          <mxGeometry width="50" height="50" relative="1" as="geometry">
            <mxPoint x="578" y="640" as="sourcePoint" />
            <mxPoint x="578" y="600" as="targetPoint" />
          </mxGeometry>
        </mxCell>
        <mxCell id="eS1aWTDM6hAk5lM-BrTF-15" value="" style="endArrow=none;html=1;rounded=0;strokeWidth=2;" parent="1" edge="1">
          <mxGeometry width="50" height="50" relative="1" as="geometry">
            <mxPoint x="677.96" y="640" as="sourcePoint" />
            <mxPoint x="678" y="620" as="targetPoint" />
          </mxGeometry>
        </mxCell>
        <mxCell id="eS1aWTDM6hAk5lM-BrTF-16" value="" style="endArrow=none;html=1;rounded=0;strokeWidth=2;" parent="1" edge="1">
          <mxGeometry width="50" height="50" relative="1" as="geometry">
            <mxPoint x="578" y="526" as="sourcePoint" />
            <mxPoint x="678" y="526" as="targetPoint" />
          </mxGeometry>
        </mxCell>
        <mxCell id="eS1aWTDM6hAk5lM-BrTF-17" value="" style="endArrow=none;html=1;rounded=0;exitX=0;exitY=0.5;exitDx=0;exitDy=0;exitPerimeter=0;strokeWidth=2;" parent="1" source="eS1aWTDM6hAk5lM-BrTF-3" edge="1">
          <mxGeometry width="50" height="50" relative="1" as="geometry">
            <mxPoint x="528" y="526" as="sourcePoint" />
            <mxPoint x="578" y="526" as="targetPoint" />
          </mxGeometry>
        </mxCell>
        <mxCell id="eS1aWTDM6hAk5lM-BrTF-18" value="" style="pointerEvents=1;verticalLabelPosition=bottom;shadow=0;dashed=0;align=center;html=1;verticalAlign=top;shape=mxgraph.electrical.signal_sources.signal_ground;strokeWidth=2;" parent="1" vertex="1">
          <mxGeometry x="618" y="640" width="20" height="20" as="geometry" />
        </mxCell>
        <mxCell id="eS1aWTDM6hAk5lM-BrTF-19" value="" style="shape=waypoint;sketch=0;fillStyle=solid;size=6;pointerEvents=1;points=[];fillColor=none;resizable=0;rotatable=0;perimeter=centerPerimeter;snapToPoint=1;strokeWidth=2;" parent="1" vertex="1">
          <mxGeometry x="618" y="630" width="20" height="20" as="geometry" />
        </mxCell>
        <mxCell id="eS1aWTDM6hAk5lM-BrTF-20" value="" style="shape=waypoint;sketch=0;fillStyle=solid;size=6;pointerEvents=1;points=[];fillColor=none;resizable=0;rotatable=0;perimeter=centerPerimeter;snapToPoint=1;strokeWidth=2;" parent="1" vertex="1">
          <mxGeometry x="568" y="516" width="20" height="20" as="geometry" />
        </mxCell>
        <mxCell id="eS1aWTDM6hAk5lM-BrTF-21" value="" style="endArrow=none;html=1;rounded=0;exitX=0;exitY=0.5;exitDx=0;exitDy=0;exitPerimeter=0;entryX=1;entryY=0.5;entryDx=0;entryDy=0;entryPerimeter=0;strokeWidth=2;" parent="1" source="eS1aWTDM6hAk5lM-BrTF-3" target="eS1aWTDM6hAk5lM-BrTF-4" edge="1">
          <mxGeometry width="50" height="50" relative="1" as="geometry">
            <mxPoint x="528" y="570" as="sourcePoint" />
            <mxPoint x="578" y="520" as="targetPoint" />
          </mxGeometry>
        </mxCell>
        <mxCell id="eS1aWTDM6hAk5lM-BrTF-24" value="&lt;font style=&quot;font-size: 16px;&quot;&gt;$$R_s$$&lt;/font&gt;" style="text;html=1;align=center;verticalAlign=middle;whiteSpace=wrap;rounded=0;strokeWidth=2;" parent="1" vertex="1">
          <mxGeometry x="588" y="452" width="60" height="30" as="geometry" />
        </mxCell>
        <mxCell id="eS1aWTDM6hAk5lM-BrTF-25" value="&lt;font style=&quot;font-size: 16px;&quot;&gt;$$C_\text{gate}$$&lt;/font&gt;" style="text;html=1;align=center;verticalAlign=middle;whiteSpace=wrap;rounded=0;strokeWidth=2;" parent="1" vertex="1">
          <mxGeometry x="498" y="561" width="60" height="30" as="geometry" />
        </mxCell>
        <mxCell id="eS1aWTDM6hAk5lM-BrTF-27" value="&lt;font style=&quot;font-size: 16px;&quot;&gt;$$R_p$$&lt;/font&gt;" style="text;html=1;align=center;verticalAlign=middle;whiteSpace=wrap;rounded=0;strokeWidth=2;" parent="1" vertex="1">
          <mxGeometry x="688" y="565" width="60" height="30" as="geometry" />
        </mxCell>
        <mxCell id="eS1aWTDM6hAk5lM-BrTF-29" value="&lt;font style=&quot;font-size: 16px;&quot;&gt;$$R_p \gg R_s $$&lt;/font&gt;" style="text;html=1;align=center;verticalAlign=middle;whiteSpace=wrap;rounded=0;strokeWidth=2;" parent="1" vertex="1">
          <mxGeometry x="678" y="480" width="92" height="30" as="geometry" />
        </mxCell>
        <mxCell id="RBefSFkuv1tgeViYOShV-1" value="" style="pointerEvents=1;verticalLabelPosition=bottom;shadow=0;dashed=0;align=center;html=1;verticalAlign=top;shape=mxgraph.electrical.resistors.resistor_1;direction=south;strokeWidth=2;" parent="1" vertex="1">
          <mxGeometry x="568" y="279" width="20" height="100" as="geometry" />
        </mxCell>
        <mxCell id="RBefSFkuv1tgeViYOShV-2" value="" style="pointerEvents=1;verticalLabelPosition=bottom;shadow=0;dashed=0;align=center;html=1;verticalAlign=top;shape=mxgraph.electrical.capacitors.capacitor_1;direction=south;strokeWidth=2;" parent="1" vertex="1">
          <mxGeometry x="663" y="279" width="30" height="100" as="geometry" />
        </mxCell>
        <mxCell id="RBefSFkuv1tgeViYOShV-3" value="" style="endArrow=none;html=1;rounded=0;strokeWidth=2;" parent="1" edge="1">
          <mxGeometry width="50" height="50" relative="1" as="geometry">
            <mxPoint x="578" y="378.43" as="sourcePoint" />
            <mxPoint x="678" y="378.43" as="targetPoint" />
          </mxGeometry>
        </mxCell>
        <mxCell id="RBefSFkuv1tgeViYOShV-4" value="" style="endArrow=none;html=1;rounded=0;strokeWidth=4;" parent="1" edge="1">
          <mxGeometry width="50" height="50" relative="1" as="geometry">
            <mxPoint x="548" y="279" as="sourcePoint" />
            <mxPoint x="708" y="279" as="targetPoint" />
          </mxGeometry>
        </mxCell>
        <mxCell id="RBefSFkuv1tgeViYOShV-5" value="" style="endArrow=none;html=1;rounded=0;strokeWidth=2;entryX=0.833;entryY=0.667;entryDx=0;entryDy=0;entryPerimeter=0;" parent="1" source="RBefSFkuv1tgeViYOShV-6" edge="1">
          <mxGeometry width="50" height="50" relative="1" as="geometry">
            <mxPoint x="578" y="330" as="sourcePoint" />
            <mxPoint x="577.98" y="420.0100000000001" as="targetPoint" />
          </mxGeometry>
        </mxCell>
        <mxCell id="RBefSFkuv1tgeViYOShV-6" value="" style="shape=waypoint;sketch=0;fillStyle=solid;size=6;pointerEvents=1;points=[];fillColor=none;resizable=0;rotatable=0;perimeter=centerPerimeter;snapToPoint=1;" parent="1" vertex="1">
          <mxGeometry x="568" y="369" width="20" height="20" as="geometry" />
        </mxCell>
        <mxCell id="RBefSFkuv1tgeViYOShV-7" value="&lt;font style=&quot;font-size: 16px;&quot;&gt;AVDD&lt;/font&gt;" style="text;html=1;align=center;verticalAlign=middle;whiteSpace=wrap;rounded=0;strokeWidth=2;" parent="1" vertex="1">
          <mxGeometry x="593" y="249" width="60" height="30" as="geometry" />
        </mxCell>
        <mxCell id="RBefSFkuv1tgeViYOShV-8" value="&lt;font style=&quot;font-size: 16px;&quot;&gt;VDDR&lt;/font&gt;" style="text;html=1;align=center;verticalAlign=middle;whiteSpace=wrap;rounded=0;strokeWidth=2;" parent="1" vertex="1">
          <mxGeometry x="578" y="389" width="60" height="30" as="geometry" />
        </mxCell>
        <mxCell id="RBefSFkuv1tgeViYOShV-9" value="" style="pointerEvents=1;verticalLabelPosition=bottom;shadow=0;dashed=0;align=center;html=1;verticalAlign=top;shape=mxgraph.electrical.resistors.resistor_1;direction=south;strokeWidth=2;strokeColor=#999999;opacity=50;" parent="1" vertex="1">
          <mxGeometry x="193" y="525.5" width="20" height="100" as="geometry" />
        </mxCell>
        <mxCell id="RBefSFkuv1tgeViYOShV-10" value="" style="pointerEvents=1;verticalLabelPosition=bottom;shadow=0;dashed=0;align=center;html=1;verticalAlign=top;shape=mxgraph.electrical.capacitors.capacitor_1;direction=south;strokeWidth=2;" parent="1" vertex="1">
          <mxGeometry x="88" y="525.5" width="30" height="100" as="geometry" />
        </mxCell>
        <mxCell id="RBefSFkuv1tgeViYOShV-11" value="" style="pointerEvents=1;verticalLabelPosition=bottom;shadow=0;dashed=0;align=center;html=1;verticalAlign=top;shape=mxgraph.electrical.resistors.resistor_1;direction=south;strokeWidth=2;strokeColor=#999999;opacity=60;" parent="1" vertex="1">
          <mxGeometry x="93" y="416.5" width="20" height="100" as="geometry" />
        </mxCell>
        <mxCell id="RBefSFkuv1tgeViYOShV-12" value="" style="endArrow=none;html=1;rounded=0;strokeWidth=2;" parent="1" edge="1">
          <mxGeometry width="50" height="50" relative="1" as="geometry">
            <mxPoint x="103" y="639.5" as="sourcePoint" />
            <mxPoint x="203" y="639.5" as="targetPoint" />
          </mxGeometry>
        </mxCell>
        <mxCell id="RBefSFkuv1tgeViYOShV-13" value="" style="endArrow=none;html=1;rounded=0;strokeWidth=2;" parent="1" edge="1">
          <mxGeometry width="50" height="50" relative="1" as="geometry">
            <mxPoint x="103" y="639.5" as="sourcePoint" />
            <mxPoint x="103" y="599.5" as="targetPoint" />
          </mxGeometry>
        </mxCell>
        <mxCell id="RBefSFkuv1tgeViYOShV-14" value="" style="endArrow=none;html=1;rounded=0;strokeWidth=2;strokeColor=#CCCCCC;" parent="1" edge="1">
          <mxGeometry width="50" height="50" relative="1" as="geometry">
            <mxPoint x="202.96000000000004" y="639.5" as="sourcePoint" />
            <mxPoint x="203" y="619.5" as="targetPoint" />
          </mxGeometry>
        </mxCell>
        <mxCell id="RBefSFkuv1tgeViYOShV-15" value="" style="endArrow=none;html=1;rounded=0;strokeWidth=2;strokeColor=#CCCCCC;" parent="1" edge="1">
          <mxGeometry width="50" height="50" relative="1" as="geometry">
            <mxPoint x="103" y="525.5" as="sourcePoint" />
            <mxPoint x="203" y="525.5" as="targetPoint" />
          </mxGeometry>
        </mxCell>
        <mxCell id="RBefSFkuv1tgeViYOShV-16" value="" style="endArrow=none;html=1;rounded=0;exitX=0;exitY=0.5;exitDx=0;exitDy=0;exitPerimeter=0;strokeWidth=2;" parent="1" source="RBefSFkuv1tgeViYOShV-10" edge="1">
          <mxGeometry width="50" height="50" relative="1" as="geometry">
            <mxPoint x="53" y="525.5" as="sourcePoint" />
            <mxPoint x="103" y="525.5" as="targetPoint" />
          </mxGeometry>
        </mxCell>
        <mxCell id="RBefSFkuv1tgeViYOShV-17" value="" style="pointerEvents=1;verticalLabelPosition=bottom;shadow=0;dashed=0;align=center;html=1;verticalAlign=top;shape=mxgraph.electrical.signal_sources.signal_ground;strokeWidth=2;" parent="1" vertex="1">
          <mxGeometry x="143" y="639.5" width="20" height="20" as="geometry" />
        </mxCell>
        <mxCell id="RBefSFkuv1tgeViYOShV-18" value="" style="shape=waypoint;sketch=0;fillStyle=solid;size=6;pointerEvents=1;points=[];fillColor=none;resizable=0;rotatable=0;perimeter=centerPerimeter;snapToPoint=1;strokeWidth=2;" parent="1" vertex="1">
          <mxGeometry x="143" y="629.5" width="20" height="20" as="geometry" />
        </mxCell>
        <mxCell id="RBefSFkuv1tgeViYOShV-19" value="" style="shape=waypoint;sketch=0;fillStyle=solid;size=6;pointerEvents=1;points=[];fillColor=none;resizable=0;rotatable=0;perimeter=centerPerimeter;snapToPoint=1;strokeWidth=2;" parent="1" vertex="1">
          <mxGeometry x="93" y="515.5" width="20" height="20" as="geometry" />
        </mxCell>
        <mxCell id="RBefSFkuv1tgeViYOShV-20" value="" style="endArrow=none;html=1;rounded=0;exitX=0;exitY=0.5;exitDx=0;exitDy=0;exitPerimeter=0;entryX=1;entryY=0.5;entryDx=0;entryDy=0;entryPerimeter=0;strokeWidth=2;" parent="1" source="RBefSFkuv1tgeViYOShV-10" target="RBefSFkuv1tgeViYOShV-11" edge="1">
          <mxGeometry width="50" height="50" relative="1" as="geometry">
            <mxPoint x="53" y="569.5" as="sourcePoint" />
            <mxPoint x="103" y="519.5" as="targetPoint" />
          </mxGeometry>
        </mxCell>
        <mxCell id="RBefSFkuv1tgeViYOShV-21" value="&lt;font color=&quot;#999999&quot; style=&quot;font-size: 16px;&quot;&gt;$$R_s$$&lt;/font&gt;" style="text;html=1;align=center;verticalAlign=middle;whiteSpace=wrap;rounded=0;strokeWidth=2;" parent="1" vertex="1">
          <mxGeometry x="113" y="451.5" width="60" height="30" as="geometry" />
        </mxCell>
        <mxCell id="RBefSFkuv1tgeViYOShV-22" value="&lt;font style=&quot;font-size: 16px;&quot;&gt;$$C_\text{gate}$$&lt;/font&gt;" style="text;html=1;align=center;verticalAlign=middle;whiteSpace=wrap;rounded=0;strokeWidth=2;" parent="1" vertex="1">
          <mxGeometry x="23" y="560.5" width="60" height="30" as="geometry" />
        </mxCell>
        <mxCell id="RBefSFkuv1tgeViYOShV-23" value="&lt;font color=&quot;#999999&quot; style=&quot;font-size: 16px;&quot;&gt;$$R_p$$&lt;/font&gt;" style="text;html=1;align=center;verticalAlign=middle;whiteSpace=wrap;rounded=0;strokeWidth=2;" parent="1" vertex="1">
          <mxGeometry x="213" y="564.5" width="60" height="30" as="geometry" />
        </mxCell>
        <mxCell id="RBefSFkuv1tgeViYOShV-25" value="" style="pointerEvents=1;verticalLabelPosition=bottom;shadow=0;dashed=0;align=center;html=1;verticalAlign=top;shape=mxgraph.electrical.resistors.resistor_1;direction=south;strokeWidth=2;" parent="1" vertex="1">
          <mxGeometry x="93" y="278.5" width="20" height="100" as="geometry" />
        </mxCell>
        <mxCell id="RBefSFkuv1tgeViYOShV-26" value="" style="pointerEvents=1;verticalLabelPosition=bottom;shadow=0;dashed=0;align=center;html=1;verticalAlign=top;shape=mxgraph.electrical.capacitors.capacitor_1;direction=south;strokeWidth=2;fillColor=#bac8d3;strokeColor=#999999;opacity=50;" parent="1" vertex="1">
          <mxGeometry x="188" y="278.5" width="30" height="100" as="geometry" />
        </mxCell>
        <mxCell id="RBefSFkuv1tgeViYOShV-27" value="" style="endArrow=none;html=1;rounded=0;strokeWidth=2;strokeColor=#CCCCCC;" parent="1" edge="1">
          <mxGeometry width="50" height="50" relative="1" as="geometry">
            <mxPoint x="103" y="377.93" as="sourcePoint" />
            <mxPoint x="203" y="377.93" as="targetPoint" />
          </mxGeometry>
        </mxCell>
        <mxCell id="RBefSFkuv1tgeViYOShV-28" value="" style="endArrow=none;html=1;rounded=0;strokeWidth=4;" parent="1" edge="1">
          <mxGeometry width="50" height="50" relative="1" as="geometry">
            <mxPoint x="73" y="278.5" as="sourcePoint" />
            <mxPoint x="233" y="278.5" as="targetPoint" />
          </mxGeometry>
        </mxCell>
        <mxCell id="RBefSFkuv1tgeViYOShV-29" value="" style="endArrow=none;html=1;rounded=0;strokeWidth=2;entryX=0.833;entryY=0.667;entryDx=0;entryDy=0;entryPerimeter=0;" parent="1" source="RBefSFkuv1tgeViYOShV-30" edge="1">
          <mxGeometry width="50" height="50" relative="1" as="geometry">
            <mxPoint x="103" y="329.5" as="sourcePoint" />
            <mxPoint x="102.98000000000002" y="419.5100000000001" as="targetPoint" />
          </mxGeometry>
        </mxCell>
        <mxCell id="RBefSFkuv1tgeViYOShV-30" value="" style="shape=waypoint;sketch=0;fillStyle=solid;size=6;pointerEvents=1;points=[];fillColor=none;resizable=0;rotatable=0;perimeter=centerPerimeter;snapToPoint=1;" parent="1" vertex="1">
          <mxGeometry x="93" y="368.5" width="20" height="20" as="geometry" />
        </mxCell>
        <mxCell id="RBefSFkuv1tgeViYOShV-31" value="&lt;font style=&quot;font-size: 16px;&quot;&gt;AVDD&lt;/font&gt;" style="text;html=1;align=center;verticalAlign=middle;whiteSpace=wrap;rounded=0;strokeWidth=2;" parent="1" vertex="1">
          <mxGeometry x="118" y="248.5" width="60" height="30" as="geometry" />
        </mxCell>
        <mxCell id="RBefSFkuv1tgeViYOShV-32" value="&lt;font style=&quot;font-size: 16px;&quot;&gt;VDDR&lt;/font&gt;" style="text;html=1;align=center;verticalAlign=middle;whiteSpace=wrap;rounded=0;strokeWidth=2;" parent="1" vertex="1">
          <mxGeometry x="103" y="388.5" width="60" height="30" as="geometry" />
        </mxCell>
        <mxCell id="RBefSFkuv1tgeViYOShV-33" value="&lt;font style=&quot;font-size: 16px;&quot;&gt;$$R_\text{pwm}$$&lt;/font&gt;" style="text;html=1;align=center;verticalAlign=middle;whiteSpace=wrap;rounded=0;strokeWidth=2;" parent="1" vertex="1">
          <mxGeometry x="23" y="313.5" width="60" height="30" as="geometry" />
        </mxCell>
        <mxCell id="RBefSFkuv1tgeViYOShV-34" value="&lt;font style=&quot;font-size: 16px;&quot;&gt;$$R_\text{pwm}$$&lt;/font&gt;" style="text;html=1;align=center;verticalAlign=middle;whiteSpace=wrap;rounded=0;strokeWidth=2;" parent="1" vertex="1">
          <mxGeometry x="508" y="313.5" width="60" height="30" as="geometry" />
        </mxCell>
        <mxCell id="RBefSFkuv1tgeViYOShV-36" value="" style="endArrow=none;html=1;rounded=0;strokeWidth=2;" parent="1" source="RBefSFkuv1tgeViYOShV-11" edge="1">
          <mxGeometry width="50" height="50" relative="1" as="geometry">
            <mxPoint x="103" y="459" as="sourcePoint" />
            <mxPoint x="103" y="419" as="targetPoint" />
            <Array as="points">
              <mxPoint x="103" y="520" />
            </Array>
          </mxGeometry>
        </mxCell>
        <mxCell id="RBefSFkuv1tgeViYOShV-39" value="" style="endArrow=none;html=1;rounded=0;strokeWidth=2;strokeColor=#999999;opacity=50;" parent="1" edge="1">
          <mxGeometry width="50" height="50" relative="1" as="geometry">
            <mxPoint x="223" y="349" as="sourcePoint" />
            <mxPoint x="183" y="309" as="targetPoint" />
          </mxGeometry>
        </mxCell>
        <mxCell id="RBefSFkuv1tgeViYOShV-40" value="" style="endArrow=none;html=1;rounded=0;strokeWidth=2;strokeColor=#999999;opacity=50;" parent="1" edge="1">
          <mxGeometry width="50" height="50" relative="1" as="geometry">
            <mxPoint x="223" y="309" as="sourcePoint" />
            <mxPoint x="183" y="349" as="targetPoint" />
          </mxGeometry>
        </mxCell>
        <mxCell id="RBefSFkuv1tgeViYOShV-41" value="" style="endArrow=none;html=1;rounded=0;strokeWidth=2;strokeColor=#999999;opacity=50;" parent="1" edge="1">
          <mxGeometry width="50" height="50" relative="1" as="geometry">
            <mxPoint x="223" y="596" as="sourcePoint" />
            <mxPoint x="183" y="556" as="targetPoint" />
          </mxGeometry>
        </mxCell>
        <mxCell id="RBefSFkuv1tgeViYOShV-42" value="" style="endArrow=none;html=1;rounded=0;strokeWidth=2;strokeColor=#999999;opacity=50;" parent="1" edge="1">
          <mxGeometry width="50" height="50" relative="1" as="geometry">
            <mxPoint x="223" y="556" as="sourcePoint" />
            <mxPoint x="183" y="596" as="targetPoint" />
          </mxGeometry>
        </mxCell>
        <mxCell id="RBefSFkuv1tgeViYOShV-43" value="" style="endArrow=none;html=1;rounded=0;strokeWidth=2;strokeColor=#999999;opacity=50;" parent="1" edge="1">
          <mxGeometry width="50" height="50" relative="1" as="geometry">
            <mxPoint x="123" y="487" as="sourcePoint" />
            <mxPoint x="83" y="447" as="targetPoint" />
          </mxGeometry>
        </mxCell>
        <mxCell id="RBefSFkuv1tgeViYOShV-44" value="" style="endArrow=none;html=1;rounded=0;strokeWidth=2;strokeColor=#999999;opacity=50;" parent="1" edge="1">
          <mxGeometry width="50" height="50" relative="1" as="geometry">
            <mxPoint x="123" y="447" as="sourcePoint" />
            <mxPoint x="83" y="487" as="targetPoint" />
          </mxGeometry>
        </mxCell>
        <mxCell id="RBefSFkuv1tgeViYOShV-45" value="&lt;font color=&quot;#999999&quot; style=&quot;font-size: 16px;&quot;&gt;$$C_\text{p}$$&lt;/font&gt;" style="text;html=1;align=center;verticalAlign=middle;whiteSpace=wrap;rounded=0;strokeWidth=2;" parent="1" vertex="1">
          <mxGeometry x="213" y="313.5" width="60" height="30" as="geometry" />
        </mxCell>
        <mxCell id="RBefSFkuv1tgeViYOShV-46" value="&lt;font style=&quot;font-size: 16px;&quot;&gt;$$C_\text{p}$$&lt;/font&gt;" style="text;html=1;align=center;verticalAlign=middle;whiteSpace=wrap;rounded=0;strokeWidth=2;" parent="1" vertex="1">
          <mxGeometry x="688" y="314" width="60" height="30" as="geometry" />
        </mxCell>
        <mxCell id="RBefSFkuv1tgeViYOShV-47" value="" style="shape=flexArrow;endArrow=classic;html=1;rounded=0;" parent="1" edge="1">
          <mxGeometry width="50" height="50" relative="1" as="geometry">
            <mxPoint x="266" y="466.3" as="sourcePoint" />
            <mxPoint x="486" y="466.3" as="targetPoint" />
          </mxGeometry>
        </mxCell>
        <mxCell id="RBefSFkuv1tgeViYOShV-48" value="&lt;ol&gt;&lt;li&gt;&lt;font style=&quot;font-size: 12px;&quot;&gt;add Power MOS cap Cp between AVDD and VDDR&lt;/font&gt;&lt;/li&gt;&lt;li&gt;&lt;font style=&quot;font-size: 12px;&quot;&gt;add Decap MOS: gate resistance Rs and leakage Rp&lt;/font&gt;&lt;/li&gt;&lt;/ol&gt;" style="text;html=1;align=left;verticalAlign=middle;whiteSpace=wrap;rounded=0;" parent="1" vertex="1">
          <mxGeometry x="218" y="422" width="330" height="30" as="geometry" />
        </mxCell>
        <mxCell id="RBefSFkuv1tgeViYOShV-49" value="" style="endArrow=blockThin;html=1;rounded=0;endFill=1;strokeWidth=3;" parent="1" edge="1">
          <mxGeometry width="50" height="50" relative="1" as="geometry">
            <mxPoint x="79" y="840" as="sourcePoint" />
            <mxPoint x="279" y="840" as="targetPoint" />
          </mxGeometry>
        </mxCell>
        <mxCell id="RBefSFkuv1tgeViYOShV-50" value="" style="endArrow=blockThin;html=1;rounded=0;endFill=1;strokeWidth=3;" parent="1" edge="1">
          <mxGeometry width="50" height="50" relative="1" as="geometry">
            <mxPoint x="105.66" y="860" as="sourcePoint" />
            <mxPoint x="106" y="700" as="targetPoint" />
          </mxGeometry>
        </mxCell>
        <mxCell id="RBefSFkuv1tgeViYOShV-51" value="" style="curved=1;endArrow=none;html=1;rounded=0;endFill=0;strokeColor=#97D077;strokeWidth=3;" parent="1" edge="1">
          <mxGeometry width="50" height="50" relative="1" as="geometry">
            <mxPoint x="146" y="762" as="sourcePoint" />
            <mxPoint x="223" y="832" as="targetPoint" />
            <Array as="points">
              <mxPoint x="133" y="762" />
              <mxPoint x="176" y="762" />
              <mxPoint x="186" y="762" />
              <mxPoint x="203" y="762" />
              <mxPoint x="213" y="772" />
            </Array>
          </mxGeometry>
        </mxCell>
        <mxCell id="RBefSFkuv1tgeViYOShV-52" value="&lt;font style=&quot;font-size: 14px;&quot;&gt;$$\omega_p = R_\text{pwm}\cdot C_\text{gate}&amp;nbsp;$$&lt;/font&gt;" style="text;html=1;align=center;verticalAlign=middle;whiteSpace=wrap;rounded=0;strokeWidth=3;" parent="1" vertex="1">
          <mxGeometry x="176" y="732" width="144" height="30" as="geometry" />
        </mxCell>
        <mxCell id="RBefSFkuv1tgeViYOShV-53" value="" style="endArrow=blockThin;html=1;rounded=0;endFill=1;strokeWidth=3;" parent="1" edge="1">
          <mxGeometry width="50" height="50" relative="1" as="geometry">
            <mxPoint x="553" y="840" as="sourcePoint" />
            <mxPoint x="753" y="840" as="targetPoint" />
          </mxGeometry>
        </mxCell>
        <mxCell id="RBefSFkuv1tgeViYOShV-54" value="" style="endArrow=blockThin;html=1;rounded=0;endFill=1;strokeWidth=3;" parent="1" edge="1">
          <mxGeometry width="50" height="50" relative="1" as="geometry">
            <mxPoint x="579.66" y="860" as="sourcePoint" />
            <mxPoint x="580" y="700" as="targetPoint" />
          </mxGeometry>
        </mxCell>
        <mxCell id="RBefSFkuv1tgeViYOShV-55" value="" style="curved=1;endArrow=none;html=1;rounded=0;endFill=0;strokeColor=#97D077;strokeWidth=3;" parent="1" edge="1">
          <mxGeometry width="50" height="50" relative="1" as="geometry">
            <mxPoint x="616" y="762" as="sourcePoint" />
            <mxPoint x="736" y="712" as="targetPoint" />
            <Array as="points">
              <mxPoint x="607" y="762" />
              <mxPoint x="686" y="762" />
              <mxPoint x="706" y="752" />
            </Array>
          </mxGeometry>
        </mxCell>
        <mxCell id="RBefSFkuv1tgeViYOShV-58" value="&lt;font style=&quot;font-size: 14px;&quot;&gt;$$\omega_{z1} = R_\text{pwm}\cdot C_\text{p}&amp;nbsp;$$&lt;/font&gt;" style="text;html=1;align=center;verticalAlign=middle;whiteSpace=wrap;rounded=0;strokeWidth=8;" parent="1" vertex="1">
          <mxGeometry x="706" y="762" width="124" height="30" as="geometry" />
        </mxCell>
        <mxCell id="RBefSFkuv1tgeViYOShV-59" value="&lt;font style=&quot;font-size: 14px;&quot;&gt;$$\omega_{z2} = R_\text{s}\cdot C_\text{gate}&amp;nbsp;$$&lt;/font&gt;" style="text;html=1;align=center;verticalAlign=middle;whiteSpace=wrap;rounded=0;strokeWidth=8;" parent="1" vertex="1">
          <mxGeometry x="706" y="780" width="124" height="30" as="geometry" />
        </mxCell>
        <mxCell id="RBefSFkuv1tgeViYOShV-60" value="&lt;font style=&quot;font-size: 14px;&quot;&gt;$$\text{PSRR}=\frac{\text{VDDR}}{\text{AVDD}}$$&lt;/font&gt;" style="text;html=1;align=center;verticalAlign=middle;whiteSpace=wrap;rounded=0;strokeWidth=8;" parent="1" vertex="1">
          <mxGeometry x="320" y="680" width="154" height="30" as="geometry" />
        </mxCell>
        <mxCell id="RBefSFkuv1tgeViYOShV-61" value="PSRR" style="text;html=1;align=center;verticalAlign=middle;whiteSpace=wrap;rounded=0;" parent="1" vertex="1">
          <mxGeometry x="43" y="690" width="60" height="30" as="geometry" />
        </mxCell>
        <mxCell id="RBefSFkuv1tgeViYOShV-62" value="PSRR" style="text;html=1;align=center;verticalAlign=middle;whiteSpace=wrap;rounded=0;" parent="1" vertex="1">
          <mxGeometry x="518" y="690" width="60" height="30" as="geometry" />
        </mxCell>
        <mxCell id="RBefSFkuv1tgeViYOShV-63" value="frequency" style="text;html=1;align=center;verticalAlign=middle;whiteSpace=wrap;rounded=0;" parent="1" vertex="1">
          <mxGeometry x="246" y="840" width="60" height="30" as="geometry" />
        </mxCell>
        <mxCell id="RBefSFkuv1tgeViYOShV-64" value="frequency" style="text;html=1;align=center;verticalAlign=middle;whiteSpace=wrap;rounded=0;" parent="1" vertex="1">
          <mxGeometry x="726" y="840" width="60" height="30" as="geometry" />
        </mxCell>
      </root>
    </mxGraphModel>
  </diagram>
</mxfile>
